# xmcd
#
# Track frame offsets: 
#        150
#        15396
#        34858
#        49434
#        68255
#        90264
#        110394
#        125040
#        142831
#
# Disc length: 2246 seconds
#
# Revision: 1
# Processed by: cddbd v1.5.1PL0 Copyright (c) Steve Scherf et al.
# Submitted via: ExactAudioCopy v0.95a5
#
DISCID=6a08c409
DTITLE=Ry Cooder - Paradise And Lunch
DYEAR=1974
DGENRE=Blues
TTITLE0=Tamp 'Em Up Solid
TTITLE1=Tattler
TTITLE2=Married Man's A Fool
TTITLE3=Jesus On The Mainline
TTITLE4=It's All Over Now
TTITLE5=Medley: Fool For A Cigarette Feelin' Good
TTITLE6=If Walls Could Talk
TTITLE7=Mexican Divorce
TTITLE8=Ditty Wah Ditty
EXTD=
EXTT0=
EXTT1=
EXTT2=
EXTT3=
EXTT4=
EXTT5=
EXTT6=
EXTT7=
EXTT8=
PLAYORDER=
